<?xml version="1.0" standalone="no"?><!DOCTYPE svg PUBLIC "-//W3C//DTD SVG 1.1//EN" "http://www.w3.org/Graphics/SVG/1.1/DTD/svg11.dtd"><svg t="1741266055655" class="icon" viewBox="0 0 1024 1024" version="1.1" xmlns="http://www.w3.org/2000/svg" p-id="57050" xmlns:xlink="http://www.w3.org/1999/xlink" width="200" height="200"><path d="M512 512m-512 0a512 512 0 1 0 1024 0 512 512 0 1 0-1024 0Z" fill="#E7F9F0" p-id="57051"></path><path d="M357.514159 302.730159h-33.141842a27.696762 27.696762 0 0 0-28.720761 26.550857v388.851809a27.696762 27.696762 0 0 0 28.720761 26.510223h33.141842z m351.288889 0h-33.141842v123.261968l-61.862603-61.423746-61.862603 61.862603V302.730159H392.86654v441.839746h315.936508a27.696762 27.696762 0 0 0 28.720762-26.510222V329.281016a27.696762 27.696762 0 0 0-28.720762-26.510222z m-33.141842 309.313016H454.729143v-35.352381h220.94019z m0-88.372826H454.729143v-35.352381h220.94019z" fill="#19C169" p-id="57052"></path></svg>