<?xml version="1.0" standalone="no"?><!DOCTYPE svg PUBLIC "-//W3C//DTD SVG 1.1//EN" "http://www.w3.org/Graphics/SVG/1.1/DTD/svg11.dtd"><svg t="1741528471773" class="icon" viewBox="0 0 1124 1024" version="1.1" xmlns="http://www.w3.org/2000/svg" p-id="8334" xmlns:xlink="http://www.w3.org/1999/xlink" width="219.53125" height="200"><path d="M1028.113281 464.184274v71.412965c-23.30103 38.869057-57.303804 62.68018-102.018521 71.412965 40.072875 129.726752 6.0599 233.438781-102.018522 311.156491-43.266055 14.864099-87.480882 18.261315-132.624078 10.201852a263.126171 263.126171 0 0 0-81.614818-20.403704c-28.259131-30.707575-63.965613-42.602935-107.119448-35.706483l-76.513891 5.100927c-15.47621 15.384393-34.176205 23.892738-56.110187 25.50463-45.673692-6.937259-91.582027-12.038186-137.725004-15.302778-46.887713-30.442327-86.001614-69.546026-117.3213-117.3213C95.419148 687.90069 103.927493 607.97938 140.552142 530.496313a396.229736 396.229736 0 0 1-91.816669-76.513891v-81.614818c55.885746-2.7545 106.895007-19.760988 153.027782-51.009261a911.484482 911.484482 0 0 1 142.825931-137.725004c-27.20834-30.605557-27.20834-61.211113 0-91.816669a1193.096409 1193.096409 0 0 1 142.82593-51.009261c91.888082-2.417839 180.297333 21.383082 265.248157 71.412965 13.405234 30.166877 9.997815 59.068724-10.201853 86.715743a2821.954732 2821.954732 0 0 0 153.027783 137.725005c110.93494-10.4671 131.338645 26.93289 61.211113 112.220373 21.362678 13.792904 45.1636 18.89383 71.412965 15.302779z" fill="#4B5965" p-id="8335"></path><path d="M436.405855 178.532413h183.633339c92.734836 22.91336 164.147801 75.62633 214.238896 158.128709a295.741493 295.741493 0 0 0 132.624078 45.908334c-11.599506 30.299501-32.00321 52.396713-61.211113 66.312039 25.718869 33.258038 59.731844 50.264526 102.018522 51.009261-8.100271 33.594699-28.503975 55.702113-61.211113 66.312039-28.820232 3.448226-50.927646-6.753626-66.312039-30.605556-2.070976 19.281501 3.02995 36.287988 15.302778 51.009261 19.791593 88.154205 11.29345 173.176441-25.50463 255.046304-58.538228 62.40473-126.553976 76.003799-204.037044 40.807409-42.704953 11.73213-59.701239-5.274358-51.009261-51.009261 30.054656-27.545001 55.559287-22.444075 76.513892 15.302778-26.147347 7.784013-26.147347 12.884939 0 15.302778 29.065077-5.978285 52.865998-19.587556 71.412965-40.807408-37.369384 19.077464-67.974941 12.272828-91.81667-20.403705 3.703272-6.967865 7.100489-13.7725 10.201852-20.403704 39.572985-17.40436 65.077615-48.009916 76.513892-91.81667 17.016689-64.516513 18.710197-129.124843 5.100926-193.835191 9.559135-27.075716 9.559135-55.977563 0-86.715743-1.060993-21.882973 5.743643-40.59317 20.403704-56.110187-4.662246-8.130876-11.466882-11.528093-20.403704-10.201852-34.64549-3.917511-65.251046-17.526782-91.81667-40.807409-6.529185-18.689793-16.731038-22.08701-30.605556-10.201852 18.393939 48.96889 11.599506 93.183718-20.403705 132.624078 56.436646 2.224004 100.651474 26.024925 132.624079 71.412965 7.059682 34.655692 7.059682 68.658465 0 102.018522a163.902957 163.902957 0 0 0-51.009261-20.403704c-20.403704-27.20834-44.204625-51.009261-71.412965-71.412966-5.019311-23.658095-15.221163-44.0618-30.605557-61.211113-1.754719-45.602279-10.263063-49.009698-25.50463-10.201852-8.365519 69.84188-6.672011 137.857628 5.100926 204.037044v10.201852c1.326241 8.936823-2.070976 15.741458-10.201852 20.403704a56.885528 56.885528 0 0 0-30.605557-10.201852c-4.825476-14.343804-15.027328-21.14844-30.605556-20.403704a12383.548861 12383.548861 0 0 0-61.211113-81.614818c-24.035564-88.990756-25.739273-177.410209-5.100927-265.248156-20.199667 52.029446-33.798736 106.446126-40.807408 163.229635-19.72018 45.061581-45.224811 85.86899-76.513891 122.422226-10.161045-0.877359-18.669389 2.530059-25.504631 10.201852l-5.100926-15.302779c9.406108-25.55564 14.507034-51.06027 15.302778-76.513891-21.168843 34.012975-29.677188 71.423167-25.50463 112.220374-21.678936 87.735929-8.079867 171.054455 40.807409 249.945378-5.67223 3.907309-9.079648 9.008235-10.201853 15.302778-37.032723 3.46863-71.045699-5.039715-102.018521-25.50463-14.619254-27.636818-35.022958-49.734029-61.211113-66.312039-34.584279-101.559438-20.98521-196.773325 40.807408-285.651861a1008.41228 1008.41228 0 0 1-91.816669-25.50463c-22.923562-20.352695-33.125414-45.857326-30.605557-76.513891 47.20397-0.744735 91.408595-12.650297 132.624078-35.706483 62.425133-81.237349 140.632532-140.744753 234.6426-178.532413z" fill="#FBFAF5" p-id="8336"></path><path d="M701.654012 178.532413c-3.489033 8.549152-10.283467 11.956571-20.403705 10.201852-6.345552-18.720399-19.954823-30.62596-40.807408-35.706482 32.798955-22.729727 53.202659-14.231584 61.211113 25.50463z" fill="#EDDAC9" p-id="8337"></path><path d="M589.433638 127.523152c3.274795 15.792467 13.476647 22.597103 30.605556 20.403704 6.284341 7.1617 6.284341 17.363552 0 30.605557h-183.633339c22.515488-20.556732 49.723827-30.758584 81.614818-30.605557 7.804417 4.315383 16.30256 7.722802 25.50463 10.201853a197.35483 197.35483 0 0 1 45.908335-30.605557z" fill="#61676F" p-id="8338"></path><path d="M497.616968 127.523152c10.201852 3.397217 17.006488 10.201852 20.403705 20.403704-31.89099-0.153028-59.09933 10.048824-81.614818 30.605557h-40.807408a334.94721 334.94721 0 0 0 45.908334-51.009261l10.201853 20.403704a369.439673 369.439673 0 0 0 45.908334-20.403704z" fill="#9E7964" p-id="8339"></path><path d="M671.048455 107.119448c16.322963 11.670919 33.329451 23.57648 51.009261 35.706482-8.53895 10.314073-11.936167 22.219634-10.201852 35.706483h-10.201852c-8.008454-39.736214-28.412158-48.234357-61.211113-25.50463 20.852586 5.080522 34.461857 16.986084 40.807408 35.706482a196.304039 196.304039 0 0 0-61.211113-10.201852c6.284341-13.242004 6.284341-23.443856 0-30.605557-1.091598-19.16928 4.009328-22.566497 15.302779-10.201852 15.170154-7.681995 16.873863-16.180138 5.100926-25.50463a50.315535 50.315535 0 0 1 30.605556-5.100926z" fill="#B5866D" p-id="8340"></path><path d="M487.415116 76.513891c-1.367048 18.281719 2.04037 35.278005 10.201852 51.009261a369.439673 369.439673 0 0 1-45.908334 20.403704l-10.201853-20.403704a334.94721 334.94721 0 0 1-45.908334 51.009261c-35.247399-6.406763-47.152961-26.810468-35.706483-61.211113 38.869057-24.45384 81.369973-38.052909 127.523152-40.807409z" fill="#D4B29D" p-id="8341"></path><path d="M671.048455 107.119448c60.486782 2.09138 74.08585 25.892301 40.807409 71.412965-1.734315-13.486849 1.662902-25.39241 10.201852-35.706483a3185.36511 3185.36511 0 0 1-51.009261-35.706482z" fill="#D6C2B4" p-id="8342"></path><path d="M609.837342 86.715743c23.321434 0.969176 43.725138 7.773811 61.211113 20.403705a50.315535 50.315535 0 0 0-30.605556 5.100926c11.772937 9.324493 10.069228 17.822636-5.100926 25.50463-11.29345-12.364645-16.394376-8.967428-15.302779 10.201852-17.12891 2.193398-27.330762-4.611237-30.605556-20.403704 11.976974-10.344678 18.771408-23.943747 20.403704-40.807409z" fill="#D8B9A6" p-id="8343"></path><path d="M609.837342 86.715743c-1.632296 16.863662-8.42673 30.462731-20.403704 40.807409a197.35483 197.35483 0 0 0-45.908335 30.605557 113.281366 113.281366 0 0 1-25.50463-10.201853c-3.397217-10.201852-10.201852-17.006488-20.403705-20.403704-8.161482-15.731256-11.5689-32.727542-10.201852-51.009261 3.733878-12.191213 12.232021-18.985647 25.504631-20.403704 20.403704 13.599069 40.807409 13.599069 61.211113 0 16.751441 4.876485 28.667205 15.078338 35.706482 30.605556z" fill="#C93B21" p-id="8344"></path><path d="M671.048455 300.954639c26.565623 23.280627 57.17118 36.889897 91.81667 40.807409-1.122204 6.294543-4.529622 11.395469-10.201852 15.302778-53.773963 18.934638-80.982303 0.234643-81.614818-56.110187z" fill="#6F7A91" p-id="8345"></path><path d="M671.048455 300.954639c0.632515 56.34483 27.840855 75.044825 81.614818 56.110187 5.67223-3.907309 9.079648-9.008235 10.201852-15.302778 8.936823-1.326241 15.741458 2.070976 20.403704 10.201852-14.660062 15.517017-21.464697 34.227214-20.403704 56.110187 9.559135 30.738181 9.559135 59.640028 0 86.715743h-10.201852c-31.972605-45.38804-76.187432-69.188961-132.624079-71.412965 32.00321-39.44036 38.797644-83.655188 20.403705-132.624078 13.874519-11.885158 24.076371-8.487941 30.605556 10.201852z" fill="#262F44" p-id="8346"></path><path d="M599.63549 443.780569c15.384393 17.149313 25.586245 37.553018 30.605557 61.211113-20.801577-14.394813-31.003429-34.798518-30.605557-61.211113z" fill="#8C959B" p-id="8347"></path><path d="M446.607708 556.000943c-11.160826-23.831527-24.759895-23.831527-40.807409 0-30.095464-2.172995-57.303804 4.631641-81.614817 20.403705 31.289081-36.553236 56.793711-77.360645 76.513891-122.422226 7.008672-56.783509 20.607741-111.200189 40.807408-163.229635-20.638347 87.837947-18.934638 176.2574 5.100927 265.248156z" fill="#8B949A" p-id="8348"></path><path d="M405.800299 464.184274c36.236979 51.641776 22.627708 77.146406-40.807409 76.513891a167.71845 167.71845 0 0 0 40.807409-76.513891z" fill="#F8F5EA" p-id="8349"></path><path d="M599.63549 443.780569c-0.397872 26.412595 9.80398 46.8163 30.605557 61.211113-8.793997 9.079648-13.894923 19.281501-15.302779 30.605557 24.698684 22.413469 53.610733 36.012538 86.715744 40.807409 9.242878 14.945713 22.841947 25.147566 40.807408 30.605556l10.201853 30.605557c-1.428259 15.608834-8.222693 25.810686-20.403705 30.605556-7.171902-22.607304-20.770971-41.307299-40.807408-56.110187-34.931142-7.620784-68.933915-5.917074-102.018522 5.100926-11.73213-49.13212-13.425637-100.141381-5.100926-153.027782 2.836115-9.344897 7.937041-16.149532 15.302778-20.403705z" fill="#F5F0E6" p-id="8350"></path><path d="M599.63549 443.780569c-7.365737 4.254172-12.466663 11.058808-15.302778 20.403705-8.324711 52.886402-6.631204 103.895662 5.100926 153.027782l-10.201852 20.403705c-11.772937-66.179415-13.466445-134.195163-5.100926-204.037044 15.241567-38.807846 23.749912-35.400427 25.50463 10.201852z" fill="#879198" p-id="8351"></path><path d="M630.241047 504.991682c27.20834 20.403704 51.009261 44.204625 71.412965 71.412966-33.10501-4.794871-62.017059-18.393939-86.715744-40.807409 1.407856-11.324056 6.508782-21.525908 15.302779-30.605557z" fill="#8E969B" p-id="8352"></path><path d="M946.498464 566.202795c-13.058371 14.59885-30.064858 21.403486-51.009261 20.403705-12.272828-14.721273-17.373754-31.72776-15.302778-51.009261 15.384393 23.85193 37.491807 34.053783 66.312039 30.605556z" fill="#8E97A1" p-id="8353"></path><path d="M446.607708 556.000943c20.281282 26.810468 40.684986 54.018807 61.211113 81.614818-10.161045 0.877359-18.669389-2.530059-25.504631-10.201853-7.120893 12.140204-15.619036 22.342056-25.50463 30.605557l-20.403705-20.403704c-23.382645-12.099397-47.193768-12.099397-71.412965 0 15.20076-18.159297 35.604464-24.963932 61.211113-20.403705 15.47621 0.102019 27.381771 6.906654 35.706483 20.403705 6.804635-6.804635 6.804635-13.599069 0-20.403705-10.150843-5.774248-18.648986-12.578884-25.504631-20.403704 13.517454-26.484008 3.315602-40.093279-30.605556-40.807409 16.047513-23.831527 29.646582-23.831527 40.807409 0z" fill="#C8C6C0" p-id="8354"></path><path d="M752.663273 494.78983h10.201852c13.609271 64.710348 11.915763 129.318678-5.100926 193.835191-11.436276 43.806753-36.940907 74.41231-76.513892 91.81667a415.980522 415.980522 0 0 0 45.908335-61.211113c5.917074-14.568245 4.203163-28.177516-5.100926-40.807409 6.804635 0 10.201852-3.397217 10.201852-10.201852 12.181011-4.794871 18.975445-14.996723 20.403705-30.605556l-10.201853-30.605557c-17.965462-5.457991-31.564531-15.659843-40.807408-30.605556a163.902957 163.902957 0 0 1 51.009261 20.403704c7.059682-33.360057 7.059682-67.36283 0-102.018522z" fill="#919AA0" p-id="8355"></path><path d="M324.185482 576.404648c-7.773811 17.975664-21.383082 28.177516-40.807409 30.605556-4.172558-40.797207 4.335787-78.207399 25.50463-112.220374-0.795744 25.453621-5.896671 50.958252-15.302778 76.513891l5.100926 15.302779c6.835241-7.671793 15.343586-11.079211 25.504631-10.201852z" fill="#848E96" p-id="8356"></path><path d="M436.405855 596.808352c6.855645 7.824821 15.353788 14.629456 25.504631 20.403704 6.804635 6.804635 6.804635 13.599069 0 20.403705-8.324711-13.49705-20.230273-20.301686-35.706483-20.403705-43.235449-19.240693-77.238223-7.345334-102.018521 35.706483-6.804635 6.804635-13.599069 6.804635-20.403705 0 29.585371-50.295131 73.789997-68.995126 132.624078-56.110187z" fill="#5D6D7A" p-id="8357"></path><path d="M732.259568 668.221317c0 6.804635-3.397217 10.201852-10.201852 10.201852-6.804635-27.20834-23.800921-44.204625-51.009261-51.009261-34.686297-16.282156-65.291854-9.487723-91.816669 20.403705v-10.201852l10.201852-20.403705c33.084607-11.018 67.08738-12.72171 102.018522-5.100926 20.036438 14.802887 33.635507 33.502883 40.807408 56.110187z" fill="#5C6C79" p-id="8358"></path><path d="M671.048455 627.413908l20.403705 30.605557h-20.403705c0-6.804635-3.397217-10.201852-10.201852-10.201852-21.81156-13.344023-42.215264-9.946806-61.211113 10.201852-9.80398 18.006269-13.211399 38.409973-10.201852 61.211113-9.52853-10.895578-12.935949-24.494647-10.201852-40.807409-19.179482 2.7545-32.778551-4.039933-40.807409-20.403704a56.885528 56.885528 0 0 1 30.605557 10.201852c8.130876-4.662246 11.528093-11.466882 10.201852-20.403704 26.524816-29.891427 57.130372-36.68586 91.816669-20.403705z" fill="#9F9A93" p-id="8359"></path><path d="M405.800299 556.000943c33.921158 0.71413 44.123011 14.3234 30.605556 40.807409-58.834081-12.884939-103.038707 5.815056-132.624078 56.110187 6.804635 6.804635 13.599069 6.804635 20.403705 0 24.780299-43.051816 58.783072-54.947176 102.018521-35.706483-25.606649-4.560228-46.010353 2.244407-61.211113 20.403705-6.294543 1.122204-11.395469 4.529622-15.302778 10.201852-9.467319 38.195735-4.366393 73.902217 15.302778 107.119448 72.48416 10.579321 103.089716-21.729945 91.81667-96.917596 9.885595-8.2635 18.383738-18.465352 25.50463-30.605557 6.835241 7.671793 15.343586 11.079211 25.504631 10.201853 15.578228-0.744735 25.78008 6.0599 30.605556 20.403704 8.028858 16.363771 21.627927 23.158204 40.807409 20.403704-2.734096 16.312762 0.673322 29.911831 10.201852 40.807409 7.549371 47.438613 34.747508 62.741391 81.614817 45.908335 30.452529-31.411503 37.257164-67.117985 20.403705-107.119448l-20.403705-30.605557c27.20834 6.804635 44.204625 23.800921 51.009261 51.009261 9.304089 12.629893 11.018 26.239164 5.100926 40.807409a415.980522 415.980522 0 0 1-45.908335 61.211113c-40.501353 8.396124-71.10691 30.503538-91.816669 66.312039-16.669826 5.029513-33.666112 6.733222-51.009261 5.100926v-30.605556c14.945713-22.301249 18.34293-46.112372 10.201852-71.412966-20.403704 13.599069-40.807409 13.599069-61.211113 0-8.375721 30.064858-8.375721 60.670415 0 91.81667h-61.211113c-16.669826-48.285366-48.96889-65.291854-96.917595-51.009261-12.864536-2.652482-23.066388-9.446915-30.605557-20.403704a635.248931 635.248931 0 0 1-15.302778-163.229635c19.424327-2.428041 33.033597-12.629893 40.807409-30.605556 24.311014-15.772063 51.519353-22.576699 81.614817-20.403705z" fill="#F6E9DE" p-id="8360"></path><path d="M436.405855 637.615761v20.403704c-30.268895 12.874737-37.073531 33.278442-20.403704 61.211113h-40.807409c-1.734315-13.486849 1.662902-25.39241 10.201853-35.706483-8.97763-7.222911-15.782265-15.731256-20.403705-25.50463v-20.403704c24.219197-12.099397 48.03032-12.099397 71.412965 0z" fill="#FBFAF5" p-id="8361"></path><path d="M660.846603 647.817613c-2.183196 16.771845 1.224222 32.074623 10.201852 45.908335a1824.305407 1824.305407 0 0 0-71.412965-5.100927v-30.605556c18.995849-20.148658 39.399553-23.545875 61.211113-10.201852z" fill="#FBF8F3" p-id="8362"></path><path d="M660.846603 647.817613c6.804635 0 10.201852 3.397217 10.201852 10.201852 11.905561 32.084825 5.100926 60.986672-20.403704 86.715743-13.099178 6.978067-24.994538 5.274358-35.706483-5.100926a281.265064 281.265064 0 0 0-15.302778-51.009261c24.637473 1.285433 48.448596 2.989143 71.412965 5.100927-8.97763-13.833712-12.385049-29.13649-10.201852-45.908335z" fill="#CAAF5F" p-id="8363"></path><path d="M599.63549 658.019465v30.605556a281.265064 281.265064 0 0 1 15.302778 51.009261c10.711945 10.375284 22.607304 12.078993 35.706483 5.100926 25.50463-25.729071 32.309266-54.630918 20.403704-86.715743h20.403705c16.85346 40.001462 10.048824 75.707945-20.403705 107.119448-46.867309 16.833056-74.065447 1.530278-81.614817-45.908335-3.009546-22.80114 0.397872-43.204844 10.201852-61.211113z" fill="#6A6062" p-id="8364"></path><path d="M630.241047 698.826874c23.994756 10.640532 25.698466 24.239601 5.100926 40.807408-18.036875-12.058589-19.740584-25.657658-5.100926-40.807408z" fill="#FCFAF3" p-id="8365"></path><path d="M364.99289 637.615761v20.403704c-5.539606 0.612111-8.936823 4.009328-10.201852 10.201852 5.386578 18.730601 12.181011 35.737088 20.403704 51.009261 13.599069 27.20834 27.20834 27.20834 40.807409 0 18.159297-15.20076 24.963932-35.604464 20.403704-61.211113v-20.403704l20.403705 20.403704c11.273047 75.18765-19.33251 107.496916-91.81667 96.917596-19.669171-33.217231-24.770097-68.923713-15.302778-107.119448 3.907309-5.67223 9.008235-9.079648 15.302778-10.201852z" fill="#756662" p-id="8366"></path><path d="M375.194742 719.230578h40.807409c-13.599069 27.20834-27.20834 27.20834-40.807409 0z" fill="#C5A859" p-id="8367"></path><path d="M364.99289 658.019465c4.621439 9.773374 11.426074 18.281719 20.403705 25.50463-8.53895 10.314073-11.936167 22.219634-10.201853 35.706483-8.222693-15.272173-15.017126-32.27866-20.403704-51.009261 1.26503-6.192524 4.662246-9.589741 10.201852-10.201852z" fill="#A5892E" p-id="8368"></path><path d="M436.405855 658.019465c4.560228 25.606649-2.244407 46.010353-20.403704 61.211113-16.669826-27.932671-9.865191-48.336376 20.403704-61.211113z" fill="#C8AD5F" p-id="8369"></path><path d="M538.424377 821.2491v30.605556c-18.271517 1.367048-35.278005-2.04037-51.009261-10.201852-8.375721-31.146255-8.375721-61.751811 0-91.81667 20.403704 13.599069 40.807409 13.599069 61.211113 0 8.141078 25.300593 4.743861 49.111716-10.201852 71.412966z" fill="#C18E7C" p-id="8370"></path><path d="M538.424377 821.2491c-7.263719 12.640095-17.465571 17.741021-30.605556 15.302778-31.707357-50.162507-21.505504-72.259719 30.605556-66.312039v51.009261z" fill="#FDBEB0" p-id="8371"></path><path d="M283.378073 607.010204a635.248931 635.248931 0 0 0 15.302778 163.229635c7.539169 10.956789 17.741021 17.751223 30.605557 20.403704 47.948705-14.282593 80.247769 2.723895 96.917595 51.009261l-20.403704 10.201852c-3.284996-45.66349-27.096119-60.966269-71.412965-45.908335-11.018 23.46426-7.610582 45.561472 10.201852 66.312039h-30.605557c1.122204-6.294543 4.529622-11.395469 10.201853-15.302778-48.887276-78.890923-62.486345-162.209449-40.807409-249.945378z" fill="#737D86" p-id="8372"></path><path d="M762.865125 821.2491a199.629843 199.629843 0 0 1 35.706482-40.807409c1.713911 23.882536-10.19165 37.481605-35.706482 40.807409z" fill="#99A3A8" p-id="8373"></path><path d="M405.800299 851.854656c-15.20076 18.159297-35.604464 24.963932-61.211113 20.403704-17.812434-20.750567-21.219853-42.847779-10.201852-66.312039 44.316846-15.057934 68.127969 0.244844 71.412965 45.908335z" fill="#FBF5EA" p-id="8374"></path></svg>