<?xml version="1.0" standalone="no"?><!DOCTYPE svg PUBLIC "-//W3C//DTD SVG 1.1//EN" "http://www.w3.org/Graphics/SVG/1.1/DTD/svg11.dtd"><svg t="1741528214114" class="icon" viewBox="0 0 1024 1024" version="1.1" xmlns="http://www.w3.org/2000/svg" p-id="7072" xmlns:xlink="http://www.w3.org/1999/xlink" width="200" height="200"><path d="M680.383148 31.176307h40.718543c83.167622 50.938896 123.886164 125.586164 122.155626 223.951982 22.924539-8.479636 44.983809-8.479636 66.167631 0 11.370653 71.898766 13.070652 143.156214 5.089818 213.772346h-20.359272c8.164068-65.90296 4.774249-130.380772-10.179635-193.413075-30.264056 13.335323-54.013146 33.694594-71.257449 61.077813 11.991611-48.984406 11.991611-96.492765 0-142.514897-10.861671-61.770028-44.790396-105.878389-101.796355-132.335262-0.610778-5.527542-4.000597-8.917361-10.179636-10.179636a638.181711 638.181711 0 0 0-15.269453 111.975991 1681.604532 1681.604532 0 0 1-86.526902-30.538907h-30.538906c-50.898178-13.569454-101.796355-13.569454-152.694533 0h-10.179636c-57.942485 10.32215-108.840663 34.08142-152.694533 71.257449l-20.359271 10.179636a281.80285 281.80285 0 0 0-61.077813 81.437084c-33.989803 33.949084-57.738893 74.667627-71.257449 122.155626-30.304775 63.296974-43.874229 131.164604-40.718542 203.592711-9.202391 7.217362-12.592209 17.396997-10.179635 30.538906-18.15029-186.338228 42.927523-344.122579 183.233439-473.353052C369.252768 95.481065 513.457485 80.211611 665.113695 132.972662c3.450896-34.407168 8.540714-68.335893 15.269453-101.796355z" fill="#0F1826" opacity=".928" p-id="7073"></path><path d="M415.712625 132.972662c50.898178-13.569454 101.796355-13.569454 152.694533 0a828.805565 828.805565 0 0 1-152.694533 0z" fill="#3E655E" p-id="7074"></path><path d="M710.922055 61.715214c-11.564066 52.740692-11.564066 107.038868 0 162.874168a321.544147 321.544147 0 0 0 30.538907 96.706538c-9.161672 12.58203-21.031127 21.071846-35.628725 25.449088a161.876564 161.876564 0 0 0-66.167631-10.179635 525.666199 525.666199 0 0 0-71.257448-10.179636c-4.244908-7.349697-11.034725-12.439515-20.359271-15.269453 55.764043-10.729336 110.05204-15.819154 162.874168-15.269453-74.84068-16.7455-146.098129-9.955684-213.772346 20.359271-60.263442 16.552087-114.551439 43.701175-162.874169 81.437084-46.286803 22.456276-87.005345 52.995183-122.155626 91.61672-0.610778-5.527542-4.000597-8.917361-10.179635-10.179636a3483.369482 3483.369482 0 0 0-96.706538 20.359271c-8.398199 37.776627-6.70838 75.105351 5.089818 111.975991 14.119154-17.407177 27.688609-34.376629 40.718542-50.898177 4.305986 7.787421 7.705984 16.267058 10.179635 25.449088a1296.122094 1296.122094 0 0 1-30.538906 86.526902c-37.817346 2.921555-61.566436-14.047897-71.257449-50.898177-3.155687-72.428107 10.413767-140.295737 40.718542-203.592711 128.161611-160.807702 294.425598-255.814241 498.802141-285.029795a1681.604532 1681.604532 0 0 0 86.526902 30.538907 638.181711 638.181711 0 0 1 15.269453-111.975991c6.179039 1.262275 9.568857 4.652093 10.179636 10.179636z" fill="#48796D" p-id="7075"></path><path d="M405.532989 132.972662h10.179636c50.114346 4.702992 101.012523 4.702992 152.694533 0h30.538906c-204.376543 29.215554-370.64053 124.222092-498.802141 285.029795 13.518556-47.488 37.267646-88.206542 71.257449-122.155626 23.443701-18.577835 47.19279-37.237107 71.257449-55.987996-7.655086-6.820356-11.055084-15.310172-10.179636-25.449088l20.359271-10.179636a56.761648 56.761648 0 0 1 30.538907 10.179636 684.00025 684.00025 0 0 1 101.796355-45.80836 188.24182 188.24182 0 0 0 20.359271-35.628725z" fill="#9EA586" p-id="7076"></path><path d="M405.532989 132.972662a188.24182 188.24182 0 0 1-20.359271 35.628725 684.00025 684.00025 0 0 0-101.796355 45.80836 56.761648 56.761648 0 0 0-30.538907-10.179636c43.85387-37.176029 94.752047-60.935298 152.694533-71.257449z" fill="#45766B" p-id="7077"></path><path d="M710.922055 61.715214c57.005959 26.456873 90.934684 70.565233 101.796355 132.335262a187.671761 187.671761 0 0 1-5.089817 61.077813c-25.041903-11.696401-50.490992-11.696401-76.347267 0-4.397603-12.317359-11.187419-22.496995-20.359271-30.538907-11.564066-55.835301-11.564066-110.133477 0-162.874168z" fill="#9DA64D" p-id="7078"></path><path d="M232.479185 214.409747c-0.875449 10.138917 2.52455 18.628733 10.179636 25.449088a11273.243953 11273.243953 0 0 0-71.257449 55.987996 281.80285 281.80285 0 0 1 61.077813-81.437084z" fill="#47776B" p-id="7079"></path><path d="M812.71841 194.050476c11.991611 46.022132 11.991611 93.530491 0 142.514897h-20.359271c-6.789817 0-10.179636-3.389819-10.179635-10.179636-29.113758-13.783227-46.07303-37.532316-50.898178-71.257448 25.856274-11.696401 51.305363-11.696401 76.347267 0 5.049099-20.084421 6.738919-40.443692 5.089817-61.077813z" fill="#808C4B" p-id="7080"></path><path d="M568.407158 326.385737c-24.940107 2.056286-48.689197-1.333532-71.257449-10.179635 67.674217-30.314955 138.931666-37.104772 213.772346-20.359271-52.822129-0.5497-107.110125 4.540117-162.874168 15.269453 9.324546 2.829939 16.114363 7.919756 20.359271 15.269453z" fill="#213F44" p-id="7081"></path><path d="M497.149709 316.206102c22.568252 8.846103 46.317342 12.235922 71.257449 10.179635 24.034119 1.771257 47.783209 5.161075 71.257448 10.179636a232.635211 232.635211 0 0 1 40.718542 30.538907c17.091608 3.990417 34.06106 9.080235 50.898178 15.269453a24.716155 24.716155 0 0 1-20.359271 5.089818c-48.658658 6.016165-65.62811 31.465253-50.898178 76.347266 23.514958 5.059279 47.264048 6.749098 71.257449 5.089818-3.868262 24.85867 2.911376 31.638307 20.359271 20.359271a150.25142 150.25142 0 0 0 55.987996 30.538906c10.485025-3.420358 15.574842-10.210174 15.269453-20.359271h20.359271c4.041315 10.434126 10.820953 12.134126 20.359271 5.089818a188.24182 188.24182 0 0 0 20.359271-35.628724h30.538907c-10.871851 26.212561-27.831124 48.271832-50.898178 66.167631a208.020852 208.020852 0 0 1 15.269453 55.987995 454.866834 454.866834 0 0 1 66.167631 45.80836 759.665481 759.665481 0 0 0-45.80836 86.526902c-14.577238 19.738313-33.23651 33.307767-55.987995 40.718542h-20.359271c6.301194-47.915544-14.058077-75.054453-61.077813-81.437084 2.056286 24.940107-1.333532 48.689197-10.179636 71.257449-21.438312-29.113758-48.577221-35.893395-81.437084-20.359271-13.386221-16.643704-13.386221-33.602977 0-50.898178a26851.669543 26851.669543 0 0 1-81.437084-50.898178c0-6.789817-3.389819-10.179636-10.179636-10.179635-14.852088-26.711364-31.811361-50.470633-50.898178-71.257449 0.997604-57.097576-10.88203-111.385572-35.628724-162.874168-9.945504-12.968856-18.42514-12.968856-25.449089 0-3.389819 10.179636-10.179636 16.969452-20.359271 20.359271-0.610778-5.527542-4.000597-8.917361-10.179635-10.179636a1895.448135 1895.448135 0 0 1-30.538907 20.359271h-20.359271a118.043054 118.043054 0 0 1-71.257449 5.089818c8.958079-7.207182 15.747896-15.696998 20.359271-25.449089 48.32273-37.735909 102.610726-64.884997 162.874169-81.437084z" fill="#141C34" p-id="7082"></path><path d="M792.359139 336.565373h20.359271v30.538907c-9.171852-8.041912-15.961669-18.221548-20.359271-30.538907z" fill="#202C34" p-id="7083"></path><path d="M710.922055 224.589382c9.171852 8.041912 15.961669 18.221548 20.359271 30.538907 4.825147 33.725133 21.78442 57.474222 50.898178 71.257448-27.159268 3.399998-47.518539 16.969452-61.077813 40.718543-15.218555-12.266461-28.788009-12.266461-40.718543 0a232.635211 232.635211 0 0 0-40.718542-30.538907c22.741306-1.221556 44.800576 2.168262 66.167631 10.179635 14.597597-4.377243 26.467052-12.867059 35.628725-25.449088a321.544147 321.544147 0 0 1-30.538907-96.706538z" fill="#314748" p-id="7084"></path><path d="M883.975859 275.48756c1.689819 47.620335 0 95.128694-5.089818 142.514897-10.291612 8.520355-22.171246 11.910174-35.628724 10.179636a208.855582 208.855582 0 0 1-30.538907-61.077813v-30.538907c17.244303-27.38322 40.993392-47.742491 71.257449-61.077813z" fill="#818D4C" p-id="7085"></path><path d="M782.179504 326.385737c0 6.789817 3.389819 10.179636 10.179635 10.179636 4.397603 12.317359 11.187419 22.496995 20.359271 30.538907a195.876547 195.876547 0 0 1-10.179635 61.077813c-20.746097 50.82692-49.585005 54.226918-86.526902 10.179635-5.01856-16.633524-6.718559-33.592797-5.089818-50.898177a24.716155 24.716155 0 0 0 20.359271-5.089818 433.835707 433.835707 0 0 0-50.898178-15.269453c11.930533-12.266461 25.499987-12.266461 40.718543 0 13.559275-23.74909 33.918546-37.318544 61.077813-40.718543z" fill="#E2E0B9" p-id="7086"></path><path d="M466.610802 387.463551c13.986819 37.369442 5.497003 71.308347-25.449089 101.796355-21.479031-29.856871-19.789211-57.005959 5.089818-81.437084 10.179636-3.389819 16.969452-10.179636 20.359271-20.359271z" fill="#335171" p-id="7087"></path><path d="M710.922055 387.463551c-1.628742 17.30538 0.071257 34.264653 5.089818 50.898177 36.941897 44.047283 65.780805 40.647285 86.526902-10.179635h40.718542c-7.767062 7.81796-17.946697 12.907778-30.538907 15.269453 9.22275 17.30538 12.622748 35.964652 10.179636 55.987995 0.305389 10.149097-4.784429 16.938914-15.269453 20.359271a150.25142 150.25142 0 0 1-55.987996-30.538906c-17.447895 11.279036-24.227533 4.499399-20.359271-20.359271a253.86993 253.86993 0 0 1-71.257449-5.089818c-14.729933-44.882013 2.23952-70.331102 50.898178-76.347266z" fill="#E9EBDB" p-id="7088"></path><path d="M812.71841 367.10428a208.855582 208.855582 0 0 0 30.538907 61.077813h-40.718542c6.616763-19.697595 10.006582-40.056866 10.179635-61.077813z" fill="#46504E" p-id="7089"></path><path d="M883.975859 275.48756c14.953885 63.032303 18.343703 127.510115 10.179635 193.413075h-10.179635c-22.649689-8.469457-36.219143 1.710179-40.718542 30.538906h-20.359271c2.443113-20.023343-0.956886-38.682615-10.179636-55.987995 12.592209-2.361675 22.771845-7.451493 30.538907-15.269453 13.457478 1.730538 25.337113-1.659281 35.628724-10.179636 5.089818-47.386203 6.779637-94.894562 5.089818-142.514897z" fill="#40574F" p-id="7090"></path><path d="M466.610802 387.463551c7.023949-12.968856 15.503585-12.968856 25.449089 0 24.746694 51.488597 36.626329 105.776593 35.628724 162.874168v50.898178c-9.202391 7.217362-12.592209 17.396997-10.179635 30.538906-19.962265 63.96883-60.680807 108.08737-122.155626 132.335262-9.202391 7.217362-12.592209 17.396997-10.179636 30.538907a451.548273 451.548273 0 0 1-20.359271-10.179636c-11.421551 11.502988-25.001185 18.292805-40.718542 20.359271h-10.179636c-8.164068-14.780831-13.253885-31.740104-15.269453-50.898177-27.210166 44.525726-35.689802 92.023905-25.449089 142.514897 1.750897 10.098198-1.649101 16.877836-10.179635 20.359271 1.659281-35.985012-11.910174-46.164647-40.718542-30.538906-2.972454-28.706572-9.76227-59.245479-20.359271-91.61672-29.480224 3.817363-56.629312-1.272454-81.437085-15.269454a778.915172 778.915172 0 0 0 101.796356-66.16763l-5.089818-10.179636c-39.242495 41.919739-81.661036 48.699376-127.245444 20.359271 13.813765-17.162866 27.38322-34.122138 40.718542-50.898178a1296.122094 1296.122094 0 0 0 30.538906-86.526902 113.034673 113.034673 0 0 0-10.179635-25.449088l61.077813-71.257449c35.150281-38.621537 75.868824-69.160444 122.155626-91.61672-4.611375 9.752091-11.401192 18.241907-20.359271 25.449089 24.278431 5.659877 48.02752 3.970058 71.257449-5.089818-14.841909 15.37125-33.491001 25.550885-55.987995 30.538907-8.38802 34.427527-6.688021 68.366432 5.089817 101.796355a260.904059 260.904059 0 0 1 61.077814-61.077813 156.96998 156.96998 0 0 0 10.179635-71.257449 1895.448135 1895.448135 0 0 0 30.538907-20.359271c6.179039 1.262275 9.568857 4.652093 10.179635 10.179636-24.879029 24.431125-26.568849 51.580213-5.089818 81.437084 30.946092-30.488008 39.435908-64.426913 25.449089-101.796355z" fill="#131C37" p-id="7091"></path><path d="M385.173718 418.002457h20.359271a156.96998 156.96998 0 0 1-10.179635 71.257449 260.904059 260.904059 0 0 0-61.077814 61.077813c-11.777838-33.429923-13.477837-67.368828-5.089817-101.796355 22.496995-4.988021 41.146087-15.167657 55.987995-30.538907z" fill="#325070" p-id="7092"></path><path d="M883.975859 468.900635a188.24182 188.24182 0 0 1-20.359271 35.628724c-9.538318 7.044308-16.317956 5.344309-20.359271-5.089818 4.499399-28.828728 18.068853-39.008363 40.718542-30.538906z" fill="#D1CABC" p-id="7093"></path><path d="M212.119914 489.259906l-61.077813 71.257449a4633.719194 4633.719194 0 0 1-40.718542 50.898177c-11.798198-36.87064-13.488017-74.199363-5.089818-111.975991a3483.369482 3483.369482 0 0 1 96.706538-20.359271c6.179039 1.262275 9.568857 4.652093 10.179635 10.179636z" fill="#D5CFBE" p-id="7094"></path><path d="M527.688615 550.337719c19.086817 20.786816 36.046089 44.546085 50.898178 71.257449-23.219749 4.305986-40.189201-2.483831-50.898178-20.359271v-50.898178z" fill="#E5E2DB" p-id="7095"></path><path d="M527.688615 601.235897c10.708977 17.87544 27.678429 24.665257 50.898178 20.359271 6.789817 0 10.179636 3.389819 10.179636 10.179635h-71.257449c-2.412574-13.141909 0.977245-23.321545 10.179635-30.538906z" fill="#5B7989" p-id="7096"></path><path d="M517.50898 631.774803h71.257449c26.864058 16.857476 54.002966 33.816749 81.437084 50.898178-13.386221 17.295201-13.386221 34.254474 0 50.898178v20.359271c-6.616763 3.094609-13.3964 6.484428-20.359271 10.179635a670.125407 670.125407 0 0 0-101.796355-15.269453c8.958079-7.207182 15.747896-15.696998 20.359271-25.449089-22.690408 5.649698-39.64968 19.229332-50.898178 40.718542a375.36388 375.36388 0 0 0 122.155626 10.179636c-1.730538 13.457478 1.659281 25.337113 10.179636 35.628724-16.633524 5.01856-33.592797 6.718559-50.898178 5.089818-1.017964 26.558669 5.771853 50.307759 20.359271 71.257449-87.728099 38.244891-179.344819 53.514344-274.850159 45.808359-26.874238-6.647302-50.623327-18.526937-71.257449-35.628724-10.240713-50.490992-1.761077-97.989172 25.449089-142.514897 2.015568 19.158074 7.105386 36.117347 15.269453 50.898177 4.713171 43.802972 28.472441 62.462244 71.257449 55.987996 9.670654-31.119146 13.070652-63.347872 10.179636-96.706538 61.474819-24.247892 102.193361-68.366432 122.155626-132.335262z" fill="#F4EDE2" p-id="7097"></path><path d="M405.532989 550.337719c11.635323 35.384413 13.335323 72.702957 5.089818 111.975991-1.180838 34.936509-13.060472 65.475416-35.628724 91.61672-17.508973-14.597597-37.868244-23.077234-61.077814-25.449089 53.493985-47.610155 84.032891-106.987969 91.61672-178.143622z" fill="#E6E3DC" p-id="7098"></path><path d="M568.407158 723.391523c7.675445-19.809571 21.255079-28.299387 40.718542-25.449089-9.874246 15.07604-23.45388 23.565856-40.718542 25.449089z" fill="#3C5E75" p-id="7099"></path><path d="M822.898046 764.110065c-12.85688 23.494599-33.216151 37.053873-61.077813 40.718542a24.716155 24.716155 0 0 1-20.359271-5.089817c8.958079-13.803586 12.347898-29.073039 10.179635-45.80836 8.846103-22.568252 12.235922-46.317342 10.179636-71.257449 47.019737 6.382631 67.379008 33.52154 61.077813 81.437084z" fill="#ECE8DF" p-id="7100"></path><path d="M568.407158 723.391523c-4.611375 9.752091-11.401192 18.241907-20.359271 25.449089a670.125407 670.125407 0 0 1 101.796355 15.269453c6.962871-3.695208 13.742508-7.085026 20.359271-10.179635l10.179635 20.359271c-17.87544 10.708977-24.665257 27.678429-20.359271 50.898177-59.917335-1.618562-65.007152 11.950892-15.269453 40.718542a280.652552 280.652552 0 0 0 15.269453 50.898178c-13.029933 14.567058-29.999386 21.356875-50.898177 20.359271a210.484324 210.484324 0 0 1 10.179635-50.898177c-14.587418-20.94969-21.377235-44.69878-20.359271-71.257449 17.30538 1.628742 34.264653-0.071257 50.898178-5.089818-8.520355-10.291612-11.910174-22.171246-10.179636-35.628724a375.36388 375.36388 0 0 1-122.155626-10.179636c11.248497-21.489211 28.20777-35.068844 50.898178-40.718542z" fill="#5C8192" p-id="7101"></path><path d="M751.640597 753.93043c2.168262 16.735321-1.221556 32.004774-10.179635 45.80836a24.716155 24.716155 0 0 0 20.359271 5.089817c-3.481435 8.530535-10.261073 11.930533-20.359271 10.179636-15.045501 2.667065-28.614955-0.722754-40.718543-10.179636-4.499399-12.612568-11.299395-22.792204-20.359271-30.538906l-10.179635-20.359271v-20.359271c32.859863-15.534124 59.998772-8.754487 81.437084 20.359271z" fill="#20415A" p-id="7102"></path><path d="M59.425381 621.595168c9.691013 36.850281 33.440103 53.819733 71.257449 50.898177-13.335323 16.776039-26.904777 33.735312-40.718542 50.898178 45.584408 28.340105 88.002949 21.560468 127.245444-20.359271l5.089818 10.179636a778.915172 778.915172 0 0 1-101.796356 66.16763c24.807772 13.996999 51.95686 19.086817 81.437085 15.269454 10.597001 32.371241 17.386817 62.910148 20.359271 91.61672 1.11976 6.280835 4.519758 11.370653 10.179635 15.269453-28.258668 0.671856-50.307759 12.541311-66.167631 35.628724-6.280835 9.670654-4.580836 18.140111 5.089818 25.449089 13.569454 6.789817 27.149088 6.789817 40.718542 0 15.91077-17.671847 32.880223-32.941301 50.898178-45.80836 8.530535-3.481435 11.930533-10.261073 10.179635-20.359271 20.634121 17.101788 44.383211 28.981422 71.257449 35.628724 95.505341 7.705984 187.12206-7.563469 274.850159-45.808359a210.484324 210.484324 0 0 0-10.179635 50.898177c20.898792 0.997604 37.868244-5.792213 50.898177-20.359271 76.001159 3.847902 103.150247-30.080823 81.437085-101.796355 10.098198 1.750897 16.877836-1.649101 20.359271-10.179636 27.861662-3.664669 48.220933-17.223943 61.077813-40.718542h20.359271a1298.565206 1298.565206 0 0 0-111.975991 167.963986c-35.964652 3.114968-69.903557 11.604785-101.796355 25.449089-24.553281 0.956886-43.212553-9.22275-55.987996-30.538906-91.983187 35.526928-185.299906 38.916747-279.939977 10.179635-27.016753 13.599993-50.765842 30.569445-71.257448 50.898178h-61.077814c-16.47065-9.680833-30.040104-23.250288-40.718542-40.718542a161.43884 161.43884 0 0 1 61.077813-55.987996c-32.646091-11.553886-46.215545-31.913157-40.718542-61.077813-37.257466-32.10657-64.396374-71.135293-81.437084-117.065808 3.237124-11.676042 10.016761-20.155678 20.359271-25.449089a149.559205 149.559205 0 0 1-30.538906-35.628725c-2.412574-13.141909 0.977245-23.321545 10.179635-30.538906z" fill="#0D1524" opacity=".251" p-id="7103"></path><path d="M486.970073 825.187878c21.733522-3.593411 35.302976 4.886225 40.718542 25.449089-16.623345 46.846683-43.772433 55.326319-81.437084 25.449089 11.014366-2.534729 24.58382-4.224549 40.718542-5.089818-9.294007-14.394005-9.294007-29.663458 0-45.80836z" fill="#BE8875" p-id="7104"></path><path d="M395.353354 764.110065c2.891016 33.358666-0.508982 65.587392-10.179636 96.706538-42.785008 6.474248-66.544277-12.185024-71.257449-55.987996h10.179636c34.35627 70.982599 54.715541 67.59278 61.077813-10.179635-2.412574-13.141909 0.977245-23.321545 10.179636-30.538907z" fill="#205264" p-id="7105"></path><path d="M385.173718 794.648972c-6.362272 77.772415-26.721543 81.162234-61.077813 10.179635 15.717357-2.066466 29.296991-8.856283 40.718542-20.359271 6.962871 3.695208 13.742508 7.085026 20.359271 10.179636z" fill="#0A9C79" p-id="7106"></path><path d="M680.383148 774.289701c9.059876 7.746703 15.859872 17.926338 20.359271 30.538906 12.103587 9.456881 25.673041 12.8467 40.718543 10.179636 21.713163 71.715532-5.435925 105.644258-81.437085 101.796355a280.652552 280.652552 0 0 1-15.269453-50.898178c-49.737699-28.76765-44.647881-42.337104 15.269453-40.718542-4.305986-23.219749 2.483831-40.189201 20.359271-50.898177z" fill="#F7F2E8" p-id="7107"></path><path d="M252.838456 764.110065c21.845498 1.995209 23.535317 12.174844 5.089818 30.538907a50.205962 50.205962 0 0 1-5.089818-30.538907z" fill="#C7C7C4" p-id="7108"></path><path d="M263.018092 916.804598c-18.017955 12.867059-34.987407 28.136513-50.898178 45.80836-13.569454 6.789817-27.149088 6.789817-40.718542 0-9.670654-7.308978-11.370653-15.778435-5.089818-25.449089 15.859872-23.087413 37.908963-34.956868 66.167631-35.628724-5.659877-3.8988-9.059876-8.988618-10.179635-15.269453 28.808369-15.625741 42.377823-5.446105 40.718542 30.538906z" fill="#047F9C" p-id="7109"></path></svg>