<?xml version="1.0" standalone="no"?><!DOCTYPE svg PUBLIC "-//W3C//DTD SVG 1.1//EN" "http://www.w3.org/Graphics/SVG/1.1/DTD/svg11.dtd"><svg t="1741528089323" class="icon" viewBox="0 0 1024 1024" version="1.1" xmlns="http://www.w3.org/2000/svg" p-id="4189" xmlns:xlink="http://www.w3.org/1999/xlink" width="200" height="200"><path d="M903.902763 540.568675c-19.487855 56.167225-9.143983 106.169503 31.031616 149.986145-0.724071 7.913062-4.16858 13.084998-10.343872 15.515808 0-13.788381-6.899363-20.687744-20.687744-20.687744-11.605824-6.78558-25.394206-10.240433-41.375488-10.343872-18.960318 0.879229-32.748699 7.778592-41.375489 20.687744-24.132254-31.031616-41.375488-27.587107-51.71936 10.343872-13.178093-7.137272-13.178093-15.753717 0-25.85968a190.699626 190.699626 0 0 0-62.063233-5.171936c1.013699 21.235969-5.885663 38.479204-20.687744 51.71936 25.673491-54.667364 11.885109-94.325769-41.375488-118.954529-20.056768-14.812425-33.845149-33.772742-41.375488-56.891296-19.187883-66.821414-32.986608-66.821414-41.375489 0-23.48059 70.007326-64.856078 126.898623-124.126465 170.673889a104.473108 104.473108 0 0 1-62.063232 15.515808v-20.687744c10.954161-11.378259 19.570606-25.176985 25.85968-41.375488a479.893601 479.893601 0 0 0 10.343872-165.501953c-26.118277 59.260043-62.321829 110.979404-108.610657 155.158081-10.261121-1.779146-17.15014 1.675707-20.687744 10.343872-10.302497-0.889573-18.929286 2.56528-25.85968 10.343872-3.537604 23.977095 1.634332 46.392266 15.515808 67.235169a25.114921 25.114921 0 0 1-20.687744 5.171936l-10.343872-20.687745v-10.343872c-15.474433-69.314287-13.75735-138.276882 5.171936-206.877441 8.326817-44.230397 27.287135-82.161376 56.891296-113.782593l62.063233 15.515808c-4.72715 4.282363-8.171659 9.454299-10.343872 15.515808 24.959763 16.033002 45.647507 36.720746 62.063232 62.063233a276.243448 276.243448 0 0 1 15.515808 72.407104c7.675153-31.672936 5.947726-62.704553-5.171936-93.094849 98.225409-41.241018 96.508326-48.130037-5.171936-20.687744a99.549425 99.549425 0 0 1-46.547424-15.515808 539.784621 539.784621 0 0 0 103.438721-72.407104c-34.703691 15.422713-72.624326 24.049503-113.782593 25.85968-93.777544-16.157128-93.777544-31.672936 0-46.547425 21.556629-7.209679 38.799864-19.280978 51.71936-36.203552v-10.343872c21.235969-10.695564 38.479204-26.211372 51.719361-46.547424a87.240217 87.240217 0 0 0-41.375489-5.171936 94.191299 94.191299 0 0 1 10.343872-51.719361c-33.327956-13.012591-64.359572-7.840655-93.094848 15.515808a591.059194 591.059194 0 0 0-72.407105 56.891297c0.672352-4.530616-1.044731-7.985469-5.171936-10.343872-96.229042 57.822245-101.400978 49.205799-15.515808-25.85968 98.204722-69.665978 201.643442-83.45436 310.316162-41.375489-48.864452-25.187329-64.38026-64.845734-46.547424-118.954529a46.050918 46.050918 0 0 1 15.515808-20.687744c29.169719 44.447618 58.473909 89.267616 87.922913 134.470337a72.148508 72.148508 0 0 1 36.203552-25.85968c34.693347-4.706462 69.169473-9.878398 103.438721-15.515808 1.78949 37.962011-15.443401 63.821691-51.719361 77.57904 74.579318 43.51667 121.126742 107.307329 139.642274 191.361634 20.894622 33.224517 50.198811 50.457408 87.922912 51.71936-2.813533 43.071883-26.956131 62.032201-72.407104 56.891297a351.639931 351.639931 0 0 1 15.515808 77.57904c0.020688-26.387218 8.647477-47.074962 25.85968-62.063232z" fill="#48403B" p-id="4190"></path><path d="M521.179496 23.375071h31.031616c18.101776 46.609488 43.961456 87.984976 77.579041 124.126465 49.598867-12.826401 99.601144-23.170273 149.986145-31.031616a335.524179 335.524179 0 0 1-5.171936 82.750976c-5.171936 12.071299-13.788381 20.687744-25.85968 25.85968 64.711264 48.150725 107.803835 111.941384 129.298401 191.361634 23.811594 21.453191 51.388356 35.251916 82.750976 41.375488 11.595481 48.719637-7.364837 76.306744-56.891296 82.750977-17.212203 14.988271-25.838992 35.676015-25.85968 62.063232a351.639931 351.639931 0 0 0-15.515808-77.57904c45.450974 5.140904 69.593571-13.819413 72.407104-56.891297-37.724101-1.261952-67.028291-18.494843-87.922912-51.71936-18.515531-84.054305-65.062955-147.844964-139.642274-191.361634 36.275959-13.75735 53.50885-39.61703 51.719361-77.57904a3726.297166 3726.297166 0 0 1-103.438721 15.515808 72.148508 72.148508 0 0 0-36.203552 25.85968c-29.449004-45.202721-58.753193-90.022719-87.922913-134.470337a46.050918 46.050918 0 0 0-15.515808 20.687744c-17.832835 54.108795-2.317027 93.7672 46.547424 118.954529-108.67272-42.078872-212.111441-28.29049-310.316162 41.375489-85.88517 75.06548-80.713234 83.681925 15.515808 25.85968 4.127205 2.358403 5.844288 5.813256 5.171936 10.343872l-10.343872 20.687744c-58.960071 26.397562-121.023303 36.741434-186.189697 31.031616-3.330727 22.984084 3.568636 41.954745 20.687744 56.891297 28.197395 1.882585 55.784502 7.054521 82.750976 15.515808-14.833113 7.551027-26.894067 17.894899-36.203552 31.031616a359.801246 359.801246 0 0 1-20.687744 103.438721c-2.048087-19.467167-7.220023-36.700058-15.515808-51.719361 10.447311-19.674045 12.185081-40.361789 5.171936-62.063232-50.726349-21.411815-69.686666-59.342794-56.891297-113.782593 34.651971 1.706739 69.128097-0.020688 103.438721-5.171936 79.699534-105.435088 186.582765-158.881875 320.660035-160.330017-6.340794-45.813009 7.447588-83.733644 41.375488-113.782593z" fill="#2D231F" p-id="4191"></path><path d="M614.274345 219.90864c55.836221 12.360927 79.968475 45.109626 72.407104 98.266785-57.346427 20.656713-114.237723 18.929286-170.673889-5.171936-19.032725 6.46492-38.003386 8.192347-56.891296 5.171936a1236.640939 1236.640939 0 0 1 62.063232-87.922912c25.414894 17.843179 52.991657 23.015115 82.750977 15.515808 7.778592-6.930394 11.233445-15.557184 10.343872-25.859681z" fill="#85705F" p-id="4192"></path><path d="M417.740775 302.659617c-57.511929-13.664255-110.958716-3.320383-160.330017 31.031616-5.999446-14.771049-4.261675-28.569775 5.171936-41.375488l10.343872-20.687744c22.456546-20.687744 46.5888-39.658406 72.407105-56.891297 28.735277-23.356463 59.766893-28.528399 93.094848-15.515808a94.191299 94.191299 0 0 0-10.343872 51.719361 87.240217 87.240217 0 0 1 41.375489 5.171936c-13.240156 20.336053-30.483391 35.851861-51.719361 46.547424z" fill="#857060" p-id="4193"></path><path d="M262.582694 292.315745c-9.433611 12.805714-11.171382 26.604439-5.171936 41.375488 49.371301-34.351999 102.818088-44.695871 160.330017-31.031616v10.343872c-45.316504 23.128898-93.591355 33.47277-144.814209 31.031616 1.189545 25.311455 11.533417 45.999199 31.031616 62.063233-29.604162 31.621217-48.564479 69.552196-56.891296 113.782593-18.929286 68.60056-20.646369 137.563155-5.171936 206.877441-6.78558-8.047532-15.402026-14.936551-25.85968-20.687744-29.086968 1.97568-54.946648 15.764061-77.579041 41.375488v-10.343872c10.095619-59.787581 10.095619-66.676599 0-20.687744h-72.407104c-2.265308-12.15405 1.179201-22.497922 10.343872-31.031616a374.230948 374.230948 0 0 0 72.407104-41.375488l-5.171936-10.343872c-26.68719 19.105132-55.981036 24.277068-87.922913 15.515808-9.826678-7.4269-11.554105-16.033002-5.171936-25.85968A184.482959 184.482959 0 0 0 107.424613 576.772227c-11.14035-4.86162-21.484222-3.134193-31.031616 5.171936 22.042791-30.473047 32.386663-64.959517 31.031616-103.438721 8.295785 15.019302 13.467721 32.252193 15.515808 51.719361a359.801246 359.801246 0 0 0 20.687744-103.438721c9.309485-13.136718 21.37044-23.48059 36.203552-31.031616a353.843176 353.843176 0 0 0-82.750976-15.515808c-17.119108-14.936551-24.018471-33.907213-20.687744-56.891297 65.166394 5.709817 127.229627-4.634055 186.189697-31.031616z" fill="#4A423D" p-id="4194"></path><path d="M417.740775 313.003489c-12.919496 16.922575-30.162731 28.993873-51.71936 36.203552-93.777544 14.874488-93.777544 30.390296 0 46.547425 41.158267-1.810178 79.078902-10.436967 113.782593-25.85968a539.784621 539.784621 0 0 1-103.438721 72.407104 99.549425 99.549425 0 0 0 46.547424 15.515808c101.680263-27.442293 103.397345-20.553274 5.171936 20.687744 11.119662 30.390296 12.847089 61.421912 5.171936 93.094849a276.243448 276.243448 0 0 0-15.515808-72.407104c-16.415725-25.342487-37.103469-46.030231-62.063232-62.063233a37.713758 37.713758 0 0 1 10.343872-15.515808l-62.063233-15.515808c-19.498199-16.064033-29.842071-36.751777-31.031616-62.063233 51.222855 2.441154 99.497706-7.902718 144.814209-31.031616z" fill="#332A25" p-id="4195"></path><path d="M603.930473 550.912547h-41.375489c8.38888-66.821414 22.187606-66.821414 41.375489 0z" fill="#A99C8F" p-id="4196"></path><path d="M376.365287 716.4145c-2.213589-17.005326 1.241265-32.521134 10.343872-46.547424a335.524179 335.524179 0 0 0-82.750977-5.171936c46.288828-44.178678 82.49238-95.898038 108.610657-155.158081a479.893601 479.893601 0 0 1-10.343872 165.501953c-6.289074 16.198504-14.90552 29.997229-25.85968 41.375488z" fill="#F0E3D1" p-id="4197"></path><path d="M138.456229 737.102244c-42.213342 18.815503-74.972385 8.471631-98.266785-31.031616-7.075209-13.281532-5.347782-25.342487 5.171936-36.203552-44.995844-46.019887-34.651971-75.324076 31.031617-87.922913 9.547394-8.306129 19.891266-10.033556 31.031616-5.171936A184.482959 184.482959 0 0 1 50.533316 623.319652c-6.382169 9.826678-4.654742 18.43278 5.171936 25.85968 31.941877 8.76126 61.235723 3.589324 87.922913-15.515808l5.171936 10.343872a374.230948 374.230948 0 0 1-72.407104 41.375488c-9.164671 8.533694-12.60918 18.877567-10.343872 31.031616h72.407104c10.095619-45.988855 10.095619-39.099836 0 20.687744z" fill="#2F2621" opacity=".94" p-id="4198"></path><path d="M655.649833 706.070628h-10.343872v-31.031616h-93.094849v51.71936c20.884278 35.479481 45.016531 38.913647 72.407105 10.343872l20.687744-20.687744c2.099806 19.549918-4.789213 35.065726-20.687744 46.547425-25.135609 7.271742-49.267863 5.554659-72.407105-5.171936a1708.73526 1708.73526 0 0 1-31.031616-87.922913c51.71936-6.899363 103.438721-6.899363 155.158081 0-15.236524 7.344149-22.135886 19.405104-20.687744 36.203552z" fill="#62361C" p-id="4199"></path><path d="M562.554984 550.912547h41.375489c7.530339 23.118554 21.31872 42.078872 41.375488 56.891296 53.260597 24.628759 67.048979 64.287165 41.375488 118.954529-6.899363 0-10.343872 3.444509-10.343872 10.343872-14.543484-4.892651-21.442847-15.236524-20.687744-31.031616-1.448142-16.798448 5.451221-28.859403 20.687744-36.203552-51.71936-6.899363-103.438721-6.899363-155.158081 0a1708.73526 1708.73526 0 0 0 31.031616 87.922913c-13.612536-0.268941-29.128344 3.175569-46.547424 10.343872-9.516362 29.045593-0.899917 51.460764 25.85968 67.235168 22.83927 1.965336 43.527014 7.137272 62.063233 15.515808-10.261121-1.779146-17.15014 1.675707-20.687745 10.343872h-10.343872a924.473223 924.473223 0 0 1-155.158081 10.343872c2.451498-13.353939-0.993012-23.697811-10.343872-31.031616-43.454607-12.785026-88.284948-12.785026-134.470337 0l-10.343872-20.687744c-8.171659-22.65308-8.171659-43.340824 0-62.063232a25.114921 25.114921 0 0 0 20.687744-5.171936c-13.881476-20.842902-19.053412-43.258073-15.515808-67.235169 6.930394-7.778592 15.557184-11.233445 25.85968-10.343872-3.57898 32.086691 3.310039 61.401225 20.687744 87.922913 17.243235 6.899363 34.476126 6.899363 51.719361 0 7.778592-6.930394 11.233445-15.557184 10.343872-25.859681h10.343872a104.473108 104.473108 0 0 0 62.063232-15.515808c59.270387-43.775267 100.645875-100.666563 124.126465-170.673889z" fill="#F7E8D7" p-id="4200"></path><path d="M645.305961 706.070628v10.343872l-20.687744 20.687744c-20.170551-23.304744-44.313148-26.749253-72.407105-10.343872v-51.71936h93.094849v31.031616z" fill="#BD4B15" p-id="4201"></path><path d="M769.432426 706.070628c-20.015392 37.268971-51.047009 57.956715-93.094849 62.063233v-31.031617c0-6.899363 3.444509-10.343872 10.343872-10.343872 14.802081-13.240156 21.701444-30.483391 20.687744-51.71936a190.699626 190.699626 0 0 1 62.063233 5.171936c-13.178093 10.105963-13.178093 18.722408 0 25.85968z" fill="#674A37" p-id="4202"></path><path d="M903.902763 685.382884c-12.185081 15.505464-29.428316 25.849336-51.71936 31.031616 11.274821 11.471354 11.274821 21.815226 0 31.031616a70.410737 70.410737 0 0 1-15.515809-31.031616c-2.399778 12.79537-7.571714 23.139242-15.515808 31.031616v-51.71936c8.626789-12.909152 22.415171-19.808515 41.375489-20.687744 15.981282 0.103439 29.769664 3.558292 41.375488 10.343872z" fill="#674C3B" p-id="4203"></path><path d="M241.89495 726.758372v10.343872c-26.428593 9.185358-54.005356 12.629868-82.750977 10.343872-2.56528 24.39085 4.344426 45.078595 20.687744 62.063233-8.668165 3.537604-12.123018 10.426623-10.343872 20.687744-18.277622-23.708155-28.621494-51.284918-31.031616-82.750977 22.632392-25.611427 48.492072-39.399809 77.579041-41.375488 10.457655 5.751193 19.0741 12.640212 25.85968 20.687744z" fill="#83756C" p-id="4204"></path><path d="M624.618217 737.102244c-27.390573 28.569775-51.522827 25.135609-72.407105-10.343872 28.093957-16.405381 52.236554-12.960872 72.407105 10.343872z" fill="#F3C849" p-id="4205"></path><path d="M303.958182 664.69514a335.524179 335.524179 0 0 1 82.750977 5.171936c-9.102607 14.026291-12.557461 29.542099-10.343872 46.547424v20.687744h-10.343872c0.889573 10.302497-2.56528 18.929286-10.343872 25.859681-17.243235 6.899363-34.476126 6.899363-51.719361 0-17.377705-26.521688-24.266724-55.836221-20.687744-87.922913 3.537604-8.668165 10.426623-12.123018 20.687744-10.343872z" fill="#633517" p-id="4206"></path><path d="M355.677543 737.102244c-17.243235 27.587107-34.476126 27.587107-51.719361 0 18.453468-12.619524 35.686359-12.619524 51.719361 0z" fill="#F8D04C" p-id="4207"></path><path d="M366.021415 737.102244h-10.343872c-16.033002-12.619524-33.265893-12.619524-51.719361 0-8.699196-19.44648-12.15405-40.134224-10.343872-62.063232h72.407105v62.063232z" fill="#BE4C15" p-id="4208"></path><path d="M241.89495 737.102244l10.343872 20.687745c-8.171659 18.722408-8.171659 39.410153 0 62.063232a199.036787 199.036787 0 0 0-62.063233-10.343872h-10.343872c-16.343318-16.984638-23.253024-37.672382-20.687744-62.063233 28.745621 2.285996 56.322383-1.158514 82.750977-10.343872z" fill="#C9B7AA" p-id="4209"></path><path d="M821.151786 695.726756v51.71936c-4.303051 23.2944-18.091432 38.810208-41.375488 46.547425-58.236-3.434166-109.95536 12.081643-155.158081 46.547424a59.249699 59.249699 0 0 1-31.031616 10.343872c-18.536219-8.378536-39.223963-13.550472-62.063233-15.515808-26.759597-15.774405-35.376043-38.189576-25.85968-67.235168 17.419081-7.168303 32.934889-10.612813 46.547424-10.343872 23.139242 10.726595 47.271495 12.443678 72.407105 5.171936 15.898531-11.481698 22.78755-26.997506 20.687744-46.547425v-10.343872h10.343872c-0.755103 15.795093 6.14426 26.138965 20.687744 31.031616v31.031617c42.04784-4.106517 73.079456-24.794261 93.094849-62.063233 10.343872-37.930979 27.587107-41.375488 51.71936-10.343872z" fill="#F8E0CA" p-id="4210"></path><path d="M179.831717 809.509349h10.343872c13.312563 30.545454 34.000308 54.688052 62.063233 72.407105-20.791183 44.685527-6.992458 68.817781 41.375488 72.407104 10.49903 13.084998 26.014838 19.974017 46.547425 20.687744l46.547424-5.171936c5.751193-3.961703 9.206046-9.133639 10.343872-15.515808v-20.687744c9.661177 11.047255 13.11603 24.835637 10.343872 41.375488v20.687744h-124.126465c-46.743958-22.777206-63.976849-58.980759-51.71936-108.610656-25.818305-13.767694-46.506049-32.728011-62.063233-56.891297-1.779146-10.261121 1.675707-17.15014 10.343872-20.687744z" fill="#2C231E" opacity=".967" p-id="4211"></path><path d="M190.175589 809.509349c21.360096 0.175846 42.04784 3.620355 62.063233 10.343872l10.343872 20.687744v31.031616c0 6.899363-3.444509 10.343872-10.343872 10.343873-28.062925-17.719053-48.750669-41.86165-62.063233-72.407105z" fill="#925D38" p-id="4212"></path><path d="M397.053031 840.540965h-103.438721a510.894186 510.894186 0 0 1 10.343872 113.782593h93.094849c-1.137826 6.382169-4.592679 11.554105-10.343872 15.515808l-46.547424 5.171936c-20.532586-0.713727-36.048394-7.602746-46.547425-20.687744a257.965826 257.965826 0 0 0-5.171936-72.407104c-6.930394-7.778592-15.557184-11.233445-25.85968-10.343873v-31.031616c46.185389-12.785026 91.01573-12.785026 134.470337 0z" fill="#494233" p-id="4213"></path><path d="M903.902763 685.382884c13.788381 0 20.687744 6.899363 20.687744 20.687744-8.430256 13.829757-20.491211 24.173629-36.203552 31.031616a51.015977 51.015977 0 0 0-5.171936 31.031617c-35.603608 4.603023-63.190715 21.846258-82.750977 51.71936h31.031616c7.116584 70.4728-23.915032 113.575715-93.094848 129.298401-70.752085 14.58486-125.926299-7.830311-165.501954-67.235168a224.855091 224.855091 0 0 1-41.375488 67.235168c-20.325709 6.454576-37.5586 1.28264-51.71936-15.515808-16.239879 19.436136-33.47277 22.880645-51.719361 10.343872 4.530616 0.672352 7.985469-1.044731 10.343872-5.171936-26.428593-13.012591-33.327956-31.972909-20.687744-56.891296l31.031616 41.375488a97.511682 97.511682 0 0 0 31.031617-31.031616 154.889141 154.889141 0 0 1 36.203552 31.031616 1290.708358 1290.708358 0 0 0 46.547424-62.063233h10.343872a825.472024 825.472024 0 0 1 93.094849 67.235169c22.880645 8.171659 43.568389 6.444232 62.063233-5.171936 36.203552-8.564726 63.801003-29.25247 82.750976-62.063233l-10.343872-10.343872c-13.964227 14.998615-31.197118 21.897977-51.71936 20.687744-13.788381 0-20.687744-6.899363-20.687744-20.687744-0.620632-5.616723-4.065142-9.061232-10.343872-10.343872-9.164671 8.533694-12.60918 18.877567-10.343873 31.031616-34.445094 4.985746-62.032201-5.358126-82.750976-31.031616 45.202721-34.465782 96.922081-49.98159 155.158081-46.547424 23.284056-7.737216 37.072438-23.253024 41.375488-46.547425 7.944094-7.892374 13.11603-18.236246 15.515808-31.031616a70.410737 70.410737 0 0 0 15.515809 31.031616c11.274821-9.21639 11.274821-19.560262 0-31.031616 22.291044-5.18228 39.534279-15.526152 51.71936-31.031616z m-103.438721 134.470337a301.058397 301.058397 0 0 1-46.547424 31.031616c3.279007-23.511621 18.794816-33.855493 46.547424-31.031616z" fill="#2D231E" p-id="4214"></path><path d="M397.053031 840.540965v113.782593h-93.094849a510.894186 510.894186 0 0 0-10.343872-113.782593h103.438721z" fill="#797A58" p-id="4215"></path><path d="M397.053031 840.540965c9.35086 7.333805 12.79537 17.677677 10.343872 31.031616a924.473223 924.473223 0 0 0 155.158081-10.343872 1290.708358 1290.708358 0 0 1-46.547424 62.063233 154.889141 154.889141 0 0 0-36.203552-31.031616 97.511682 97.511682 0 0 1-31.031617 31.031616l-31.031616-41.375488c-12.640212 24.918388-5.740849 43.878705 20.687744 56.891296-2.358403 4.127205-5.813256 5.844288-10.343872 5.171936l-20.687744 31.031616c2.772158-16.539851-0.682696-30.328233-10.343872-41.375488v-93.094849z" fill="#4A4141" p-id="4216"></path><path d="M728.056938 850.884837c-8.171659 11.471354-13.343595 25.259736-15.515809 41.375489a25.114921 25.114921 0 0 1-5.171936-20.687745c-2.265308-12.15405 1.179201-22.497922 10.343873-31.031616 6.27873 1.28264 9.72324 4.72715 10.343872 10.343872z" fill="#CDAD85" p-id="4217"></path><path d="M728.056938 923.291942c-4.530616 0.672352-7.985469-1.044731-10.343872-5.171936 7.468276-18.101776 17.812148-33.617584 31.031616-46.547425 20.522242 1.210233 37.755133-5.68913 51.71936-20.687744l10.343872 10.343872c-18.949974 32.810762-46.547424 53.498506-82.750976 62.063233z" fill="#936238" p-id="4218"></path><path d="M624.618217 840.540965c20.718776 25.673491 48.305883 36.017363 82.750976 31.031616a25.114921 25.114921 0 0 0 5.171936 20.687745c2.172213-16.115753 7.344149-29.904134 15.515809-41.375489 0 13.788381 6.899363 20.687744 20.687744 20.687744-13.219469 12.92984-23.563341 28.445648-31.031616 46.547425 2.358403 4.127205 5.813256 5.844288 10.343872 5.171936-18.494843 11.616168-39.182587 13.343595-62.063233 5.171936a825.472024 825.472024 0 0 0-93.094849-67.235169c3.537604-8.668165 10.426623-12.123018 20.687745-10.343872a59.249699 59.249699 0 0 0 31.031616-10.343872z" fill="#5A493D" p-id="4219"></path><path d="M262.582694 871.572581c10.302497-0.889573 18.929286 2.56528 25.85968 10.343873 5.140904 23.894345 6.857987 48.026598 5.171936 72.407104-48.367946-3.589324-62.166671-27.721577-41.375488-72.407104 6.899363 0 10.343872-3.444509 10.343872-10.343873z" fill="#E2D1BF" p-id="4220"></path></svg>